<svg xmlns="http://www.w3.org/2000/svg" xmlns:xlink="http://www.w3.org/1999/xlink" width="500" zoomAndPan="magnify" viewBox="0 0 375 374.999991" height="500" preserveAspectRatio="xMidYMid meet" version="1.0"><defs><g/><clipPath id="dd9dcf1289"><path d="M 165.816406 0 L 213.816406 0 L 213.816406 375 L 165.816406 375 Z M 165.816406 0 " clip-rule="nonzero"/></clipPath></defs><rect x="-37.5" width="450" fill="#ffffff" y="-37.499999" height="449.999989" fill-opacity="1"/><rect x="-37.5" width="450" fill="#ffffff" y="-37.499999" height="449.999989" fill-opacity="1"/><g fill="#2b2b2b" fill-opacity="1"><g transform="translate(196.123996, 276.500007)"><g><path d="M 48.449219 1.699219 C 68.507812 1.699219 88.226562 -11.21875 88.226562 -32.46875 C 88.226562 -51.679688 70.546875 -59.160156 51.679688 -66.636719 C 37.230469 -72.585938 19.71875 -79.046875 19.71875 -95.027344 C 19.71875 -109.476562 31.449219 -117.464844 45.21875 -117.464844 C 64.597656 -117.464844 76.496094 -106.925781 82.789062 -92.136719 L 84.488281 -92.648438 L 83.808594 -112.367188 C 77.175781 -115.9375 66.128906 -120.1875 50.660156 -120.1875 C 25.667969 -120.1875 9.179688 -107.605469 9.179688 -87.71875 C 9.179688 -69.699219 21.929688 -62.558594 41.988281 -54.570312 C 56.269531 -48.789062 77.175781 -40.96875 77.175781 -23.96875 C 77.175781 -10.199219 65.449219 -1.359375 51.847656 -1.359375 C 28.21875 -1.359375 15.300781 -16.488281 8.667969 -34.339844 L 6.800781 -34 L 7.648438 -10.371094 C 15.640625 -4.589844 30.597656 1.699219 48.449219 1.699219 Z M 48.449219 1.699219 "/></g></g></g><g fill="#2b2b2b" fill-opacity="1"><g transform="translate(79.293462, 214.447884)"><g><path d="M 8.667969 0 L 87.699219 0 L 88.886719 -19.207031 L 87.019531 -19.546875 C 81.070312 -6.796875 73.589844 -2.71875 57.277344 -2.71875 L 37.050781 -2.71875 C 32.121094 -2.71875 29.402344 -5.4375 29.402344 -10.367188 L 29.402344 -97.386719 C 29.402344 -111.320312 30.933594 -115.230469 36.199219 -116.761719 L 36.199219 -118.96875 L 8.667969 -118.96875 L 8.667969 -116.761719 C 13.765625 -115.230469 15.464844 -111.320312 15.464844 -97.386719 L 15.464844 -21.585938 C 15.464844 -7.648438 13.765625 -3.738281 8.667969 -2.210938 Z M 8.667969 0 "/></g></g></g><g clip-path="url(#dd9dcf1289)"><path fill="#ffffff" d="M 165.816406 -7.589844 L 213.816406 -7.589844 L 213.816406 383.160156 L 165.816406 383.160156 Z M 165.816406 -7.589844 " fill-opacity="1" fill-rule="nonzero"/></g><g fill="#2b2b2b" fill-opacity="1"><g transform="translate(185.018416, 87.70686)"><g><path d="M 0 1.03125 L 0 10.449219 L 2.289062 10.589844 L 2.328125 10.367188 C 0.808594 9.660156 0.324219 8.769531 0.324219 6.824219 L 0.324219 4.414062 C 0.324219 3.828125 0.648438 3.503906 1.234375 3.503906 L 11.601562 3.503906 C 13.265625 3.503906 13.730469 3.683594 13.910156 4.3125 L 14.175781 4.3125 L 14.175781 1.03125 L 13.910156 1.03125 C 13.730469 1.640625 13.265625 1.84375 11.601562 1.84375 L 2.570312 1.84375 C 0.910156 1.84375 0.445312 1.640625 0.261719 1.03125 Z M 0 1.03125 "/></g></g></g><g fill="#2b2b2b" fill-opacity="1"><g transform="translate(185.018416, 101.882927)"><g><path d="M -0.203125 7.308594 C -0.203125 10.125 1.335938 12.351562 5.40625 12.351562 L 11.601562 12.351562 C 13.265625 12.351562 13.730469 12.554688 13.910156 13.164062 L 14.175781 13.164062 L 14.175781 10.652344 L 13.910156 10.652344 C 13.667969 11.542969 13.101562 12.027344 10.792969 12.027344 L 5.347656 12.027344 C 1.378906 12.027344 0.222656 9.699219 0.222656 7.957031 C 0.222656 5.324219 1.578125 3.238281 5.347656 3.238281 L 11.601562 3.238281 C 13.265625 3.238281 13.730469 3.441406 13.910156 4.050781 L 14.175781 4.050781 L 14.175781 0.769531 L 13.910156 0.769531 C 13.730469 1.398438 13.265625 1.578125 11.601562 1.578125 L 5.222656 1.578125 C 1.152344 1.578125 -0.203125 4.414062 -0.203125 7.308594 Z M -0.203125 7.308594 "/></g></g></g><g fill="#2b2b2b" fill-opacity="1"><g transform="translate(185.018416, 118.81298)"><g><path d="M -0.203125 8.6875 C -0.203125 10.957031 0.363281 12.878906 0.890625 13.832031 L 3.523438 14.15625 L 3.542969 13.933594 C 1.355469 13.140625 0.203125 11.441406 0.203125 9.253906 C 0.203125 5.042969 3.847656 2.734375 7.65625 2.753906 C 11.785156 2.753906 13.933594 5.246094 13.933594 8.464844 C 13.933594 10.875 12.695312 12.796875 10.855469 13.585938 L 10.894531 13.789062 L 13.304688 13.710938 C 13.808594 12.917969 14.316406 10.894531 14.316406 9.152344 C 14.316406 4.394531 11.117188 1.054688 6.804688 1.054688 C 2.390625 1.054688 -0.203125 4.03125 -0.203125 8.6875 Z M -0.203125 8.6875 "/></g></g></g><g fill="#2b2b2b" fill-opacity="1"><g transform="translate(185.018416, 144.43135)"><g><path d="M -0.203125 5.769531 C -0.203125 8.160156 1.335938 10.507812 3.867188 10.507812 C 6.15625 10.507812 7.046875 8.402344 7.9375 6.15625 C 8.648438 4.433594 9.417969 2.347656 11.320312 2.347656 C 13.039062 2.347656 13.992188 3.746094 13.992188 5.386719 C 13.992188 7.695312 12.738281 9.113281 10.976562 9.863281 L 11.035156 10.0625 L 13.386719 9.984375 C 13.808594 9.195312 14.316406 7.878906 14.316406 6.035156 C 14.316406 3.058594 12.816406 1.09375 10.449219 1.09375 C 8.300781 1.09375 7.453125 2.613281 6.5 5 C 5.8125 6.703125 4.878906 9.195312 2.855469 9.195312 C 1.214844 9.195312 0.160156 7.796875 0.160156 6.175781 C 0.160156 3.363281 1.964844 1.824219 4.089844 1.03125 L 4.050781 0.808594 L 1.234375 0.910156 C 0.546875 1.863281 -0.203125 3.644531 -0.203125 5.769531 Z M -0.203125 5.769531 "/></g></g></g><g fill="#2b2b2b" fill-opacity="1"><g transform="translate(185.018416, 158.769412)"><g><path d="M -0.203125 8.6875 C -0.203125 10.957031 0.363281 12.878906 0.890625 13.832031 L 3.523438 14.15625 L 3.542969 13.933594 C 1.355469 13.140625 0.203125 11.441406 0.203125 9.253906 C 0.203125 5.042969 3.847656 2.734375 7.65625 2.753906 C 11.785156 2.753906 13.933594 5.246094 13.933594 8.464844 C 13.933594 10.875 12.695312 12.796875 10.855469 13.585938 L 10.894531 13.789062 L 13.304688 13.710938 C 13.808594 12.917969 14.316406 10.894531 14.316406 9.152344 C 14.316406 4.394531 11.117188 1.054688 6.804688 1.054688 C 2.390625 1.054688 -0.203125 4.03125 -0.203125 8.6875 Z M -0.203125 8.6875 "/></g></g></g><g fill="#2b2b2b" fill-opacity="1"><g transform="translate(185.018416, 176.954965)"><g><path d="M 0 1.03125 L 0 4.3125 L 0.261719 4.3125 C 0.445312 3.683594 0.910156 3.503906 2.570312 3.503906 L 7.351562 3.503906 L 7.351562 11.21875 L 2.570312 11.21875 C 0.910156 11.21875 0.445312 11.015625 0.261719 10.410156 L 0 10.410156 L 0 13.6875 L 0.261719 13.6875 C 0.445312 13.0625 0.910156 12.878906 2.570312 12.878906 L 11.601562 12.878906 C 13.265625 12.878906 13.730469 13.0625 13.910156 13.6875 L 14.175781 13.6875 L 14.175781 10.410156 L 13.910156 10.410156 C 13.730469 11.015625 13.265625 11.21875 11.601562 11.21875 L 7.675781 11.21875 L 7.675781 3.503906 L 11.601562 3.503906 C 13.265625 3.503906 13.730469 3.683594 13.910156 4.3125 L 14.175781 4.3125 L 14.175781 1.03125 L 13.910156 1.03125 C 13.730469 1.640625 13.265625 1.84375 11.601562 1.84375 L 2.570312 1.84375 C 0.910156 1.84375 0.445312 1.640625 0.261719 1.03125 Z M 0 1.03125 "/></g></g></g><g fill="#2b2b2b" fill-opacity="1"><g transform="translate(185.018416, 194.836769)"><g><path d="M 0 1.03125 L 0 11.015625 L 2.691406 11.179688 L 2.734375 10.957031 C 0.851562 10.226562 0.304688 8.992188 0.304688 7.046875 L 0.304688 4.414062 C 0.304688 3.828125 0.628906 3.503906 1.214844 3.503906 L 7.433594 3.503906 L 7.433594 6.09375 C 7.433594 8.402344 6.964844 8.992188 6.054688 9.234375 L 6.054688 9.476562 L 9.113281 9.476562 L 9.113281 9.234375 C 8.203125 8.992188 7.734375 8.402344 7.734375 6.09375 L 7.734375 3.503906 L 13.871094 3.503906 L 13.871094 6.480469 C 13.871094 8.546875 13.265625 9.742188 11.480469 10.449219 L 11.542969 10.671875 L 14.175781 10.449219 L 14.175781 1.03125 L 13.910156 1.03125 C 13.730469 1.640625 13.265625 1.84375 11.601562 1.84375 L 2.570312 1.84375 C 0.910156 1.84375 0.445312 1.640625 0.261719 1.03125 Z M 0 1.03125 "/></g></g></g><g fill="#2b2b2b" fill-opacity="1"><g transform="translate(185.018416, 209.944331)"><g><path d="M -0.160156 11.726562 L -0.160156 11.988281 L 11.601562 11.988281 C 13.265625 11.988281 13.730469 12.171875 13.910156 12.796875 L 14.175781 12.796875 L 14.175781 10.246094 L 13.910156 10.246094 C 13.667969 11.15625 13.101562 11.644531 10.792969 11.644531 L 2.714844 11.644531 L 14.175781 2.792969 L 14.175781 0.808594 L 13.910156 0.808594 C 13.730469 1.621094 13.265625 1.863281 11.601562 1.863281 L 2.570312 1.863281 C 0.910156 1.863281 0.445312 1.660156 0.261719 1.054688 L 0 1.054688 L 0 3.585938 L 0.261719 3.585938 C 0.507812 2.671875 1.074219 2.1875 3.382812 2.1875 L 12.25 2.1875 Z M -0.160156 11.726562 "/></g></g></g><g fill="#2b2b2b" fill-opacity="1"><g transform="translate(185.018416, 226.732641)"><g><path d="M 0 1.03125 L 0 4.3125 L 0.261719 4.3125 C 0.445312 3.683594 0.910156 3.503906 2.570312 3.503906 L 7.351562 3.503906 L 7.351562 11.21875 L 2.570312 11.21875 C 0.910156 11.21875 0.445312 11.015625 0.261719 10.410156 L 0 10.410156 L 0 13.6875 L 0.261719 13.6875 C 0.445312 13.0625 0.910156 12.878906 2.570312 12.878906 L 11.601562 12.878906 C 13.265625 12.878906 13.730469 13.0625 13.910156 13.6875 L 14.175781 13.6875 L 14.175781 10.410156 L 13.910156 10.410156 C 13.730469 11.015625 13.265625 11.21875 11.601562 11.21875 L 7.675781 11.21875 L 7.675781 3.503906 L 11.601562 3.503906 C 13.265625 3.503906 13.730469 3.683594 13.910156 4.3125 L 14.175781 4.3125 L 14.175781 1.03125 L 13.910156 1.03125 C 13.730469 1.640625 13.265625 1.84375 11.601562 1.84375 L 2.570312 1.84375 C 0.910156 1.84375 0.445312 1.640625 0.261719 1.03125 Z M 0 1.03125 "/></g></g></g><g fill="#2b2b2b" fill-opacity="1"><g transform="translate(185.018416, 244.614445)"><g><path d="M 0 1.03125 L 0 11.015625 L 2.691406 11.179688 L 2.734375 10.957031 C 0.851562 10.226562 0.304688 8.992188 0.304688 7.046875 L 0.304688 4.414062 C 0.304688 3.828125 0.628906 3.503906 1.214844 3.503906 L 7.433594 3.503906 L 7.433594 6.09375 C 7.433594 8.402344 6.964844 8.992188 6.054688 9.234375 L 6.054688 9.476562 L 9.113281 9.476562 L 9.113281 9.234375 C 8.203125 8.992188 7.734375 8.402344 7.734375 6.09375 L 7.734375 3.503906 L 13.871094 3.503906 L 13.871094 6.480469 C 13.871094 8.546875 13.265625 9.742188 11.480469 10.449219 L 11.542969 10.671875 L 14.175781 10.449219 L 14.175781 1.03125 L 13.910156 1.03125 C 13.730469 1.640625 13.265625 1.84375 11.601562 1.84375 L 2.570312 1.84375 C 0.910156 1.84375 0.445312 1.640625 0.261719 1.03125 Z M 0 1.03125 "/></g></g></g><g fill="#2b2b2b" fill-opacity="1"><g transform="translate(185.018416, 259.722007)"><g><path d="M -0.140625 11.339844 C -0.140625 11.746094 -0.101562 12.273438 0 12.574219 L 0.242188 12.574219 C 0.222656 12.472656 0.222656 12.371094 0.222656 12.25 C 0.222656 11.5625 0.890625 11.15625 3.320312 10.1875 C 5.8125 9.214844 7.046875 8.828125 7.371094 6.339844 C 7.675781 8.972656 9.113281 10.347656 11.015625 10.347656 C 12.816406 10.347656 14.175781 9.132812 14.175781 5.023438 L 14.175781 1.03125 L 13.910156 1.03125 C 13.730469 1.660156 13.265625 1.84375 11.601562 1.84375 L 2.570312 1.84375 C 0.910156 1.84375 0.445312 1.660156 0.261719 1.03125 L 0 1.03125 L 0 4.3125 L 0.261719 4.3125 C 0.445312 3.683594 0.910156 3.503906 2.570312 3.503906 L 7.308594 3.503906 L 7.308594 4.800781 C 7.308594 7.230469 5.894531 7.390625 3.097656 8.566406 C 0.992188 9.457031 -0.140625 9.78125 -0.140625 11.339844 Z M 7.613281 3.503906 L 13.832031 3.503906 C 13.851562 3.828125 13.871094 4.152344 13.871094 4.453125 C 13.871094 7.453125 12.351562 8.625 10.550781 8.625 C 8.828125 8.625 7.613281 7.53125 7.613281 5.203125 Z M 7.613281 3.503906 "/></g></g></g><g fill="#2b2b2b" fill-opacity="1"><g transform="translate(185.018416, 275.295321)"><g><path d="M -0.140625 11.339844 C -0.140625 11.746094 -0.101562 12.273438 0 12.574219 L 0.242188 12.574219 C 0.222656 12.472656 0.222656 12.371094 0.222656 12.25 C 0.222656 11.5625 0.890625 11.15625 3.320312 10.1875 C 5.8125 9.214844 7.046875 8.828125 7.371094 6.339844 C 7.675781 8.972656 9.113281 10.347656 11.015625 10.347656 C 12.816406 10.347656 14.175781 9.132812 14.175781 5.023438 L 14.175781 1.03125 L 13.910156 1.03125 C 13.730469 1.660156 13.265625 1.84375 11.601562 1.84375 L 2.570312 1.84375 C 0.910156 1.84375 0.445312 1.660156 0.261719 1.03125 L 0 1.03125 L 0 4.3125 L 0.261719 4.3125 C 0.445312 3.683594 0.910156 3.503906 2.570312 3.503906 L 7.308594 3.503906 L 7.308594 4.800781 C 7.308594 7.230469 5.894531 7.390625 3.097656 8.566406 C 0.992188 9.457031 -0.140625 9.78125 -0.140625 11.339844 Z M 7.613281 3.503906 L 13.832031 3.503906 C 13.851562 3.828125 13.871094 4.152344 13.871094 4.453125 C 13.871094 7.453125 12.351562 8.625 10.550781 8.625 C 8.828125 8.625 7.613281 7.53125 7.613281 5.203125 Z M 7.613281 3.503906 "/></g></g></g></svg>